<svg width="16" height="16" viewBox="0 0 16 16" xmlns="http://www.w3.org/2000/svg">
<path d="M0.857682 1.2338C0.467163 1.62432 0.467153 2.25749 0.857682 2.64802L6.51454 8.30487L0.857682 13.9617C0.467164 14.3522 0.467153 14.9854 0.857682 15.3759C1.24821 15.7665 1.88138 15.7665 2.2719 15.3759L7.92875 9.71908L13.5856 15.3759C13.9761 15.7665 14.6093 15.7665 14.9998 15.3759C15.3903 14.9854 15.3903 14.3523 14.9998 13.9617L9.34296 8.30487L14.9998 2.64802C15.3903 2.2575 15.3903 1.62433 14.9998 1.2338C14.6093 0.843274 13.9761 0.843285 13.5856 1.2338L7.92875 6.89066L2.2719 1.2338C1.88137 0.843273 1.2482 0.843284 0.857682 1.2338Z" />
</svg>
