<svg width="30" height="31" viewBox="0 0 30 31"  xmlns="http://www.w3.org/2000/svg">
<path fill-rule="evenodd" clip-rule="evenodd" d="M30 11.0704C30 10.4017 29.6658 9.77721 29.1094 9.40628L16.6641 1.10941C15.6564 0.437611 14.3436 0.43761 13.3359 1.10941L0.8906 9.40628C0.334202 9.77721 0 10.4017 0 11.0704V28.5C0 29.6046 0.895431 30.5 2 30.5H9C10.1046 30.5 11 29.6046 11 28.5V20C11 17.7909 12.7909 16 15 16C17.2091 16 19 17.7909 19 20V28.5C19 29.6046 19.8954 30.5 21 30.5H28C29.1046 30.5 30 29.6046 30 28.5V11.0704ZM15.5547 2.77351L28 11.0704V28.5H21V20C21 16.6863 18.3137 14 15 14C11.6863 14 9 16.6863 9 20V28.5H2V11.0704L14.4453 2.77351C14.7812 2.54958 15.2188 2.54958 15.5547 2.77351Z" />
</svg>
