<svg width="30" height="31" viewBox="0 0 30 31"  xmlns="http://www.w3.org/2000/svg">
<path fill-rule="evenodd" clip-rule="evenodd" d="M15 20.5C18.866 20.5 22 17.366 22 13.5C22 9.63401 18.866 6.5 15 6.5C11.134 6.5 8 9.63401 8 13.5C8 17.366 11.134 20.5 15 20.5ZM15 18.5C17.7614 18.5 20 16.2614 20 13.5C20 10.7386 17.7614 8.5 15 8.5C12.2386 8.5 10 10.7386 10 13.5C10 16.2614 12.2386 18.5 15 18.5Z" />
<path fill-rule="evenodd" clip-rule="evenodd" d="M15 30.5C23.2843 30.5 30 23.7843 30 15.5C30 7.21573 23.2843 0.5 15 0.5C6.71573 0.5 0 7.21573 0 15.5C0 23.7843 6.71573 30.5 15 30.5ZM23.6614 25.1945C26.324 22.814 28 19.3527 28 15.5C28 8.3203 22.1797 2.5 15 2.5C7.8203 2.5 2 8.3203 2 15.5C2 19.3527 3.67597 22.814 6.33862 25.1945C8.52262 22.9175 11.5958 21.5 15 21.5C18.4042 21.5 21.4774 22.9175 23.6614 25.1945ZM22.0599 26.4178C20.2511 24.6147 17.7557 23.5 15 23.5C12.2443 23.5 9.74886 24.6147 7.9401 26.4178C9.97306 27.7351 12.3972 28.5 15 28.5C17.6028 28.5 20.0269 27.7351 22.0599 26.4178Z" />
</svg>
