<svg width="16" height="16" viewBox="0 0 16 16" fill="none" xmlns="http://www.w3.org/2000/svg">
<path d="M14.8492 13.435C15.2397 13.8255 15.2397 14.4587 14.8492 14.8492C14.4587 15.2398 13.8255 15.2398 13.435 14.8492L7.77816 9.19235L2.1213 14.8492C1.7308 15.2398 1.09762 15.2398 0.707085 14.8492C0.316582 14.4587 0.316582 13.8255 0.707085 13.435L6.36395 7.77817L0.707085 2.12131C0.316551 1.7308 0.316551 1.09763 0.707085 0.707062C1.09762 0.316559 1.73077 0.316559 2.1213 0.707062L7.77816 6.36392L13.435 0.707062C13.8256 0.316559 14.4587 0.316559 14.8492 0.707062C15.2398 1.09763 15.2398 1.7308 14.8492 2.12131L9.19238 7.77817L14.8492 13.435Z" fill="white"/>
</svg>
