<svg width="28" height="28" viewBox="0 0 28 28" fill="none" xmlns="http://www.w3.org/2000/svg">
<path fill-rule="evenodd" clip-rule="evenodd" d="M0 23.9974C0 26.2065 1.79086 27.9974 4 27.9974H12V17.9974C12 16.8928 12.8954 15.9974 14 15.9974C15.1046 15.9974 16 16.8928 16 17.9974V27.9974H24C26.2091 27.9974 28 26.2065 28 23.9974V13.697C28 12.6109 27.5584 11.5715 26.7765 10.8176L16.7765 1.17478C15.2461 -0.391489 12.7921 -0.391694 11.2235 1.17477L1.22346 10.8176C0.441644 11.5715 0 12.6109 0 13.697V23.9974ZM25.3883 12.2573L15.3883 2.61445C14.6135 1.86737 13.3865 1.86737 12.6117 2.61445L2.61173 12.2573C2.22082 12.6343 2 13.154 2 13.697V23.9974C2 25.1019 2.89543 25.9974 4 25.9974L10 25.9974V17.9974C10 15.7882 11.7909 13.9974 14 13.9974C16.2091 13.9974 18 15.7882 18 17.9974V25.9974L24 25.9974C25.1046 25.9974 26 25.1019 26 23.9974V13.697C26 13.154 25.7792 12.6343 25.3883 12.2573Z" fill="white"/>
</svg>
