<svg width="28" height="28" viewBox="0 0 28 28" fill="none" xmlns="http://www.w3.org/2000/svg">
<path fill-rule="evenodd" clip-rule="evenodd" d="M14 18C17.3137 18 20 15.3137 20 12C20 8.68629 17.3137 6 14 6C10.6863 6 8 8.68629 8 12C8 15.3137 10.6863 18 14 18ZM14 16C16.2091 16 18 14.2091 18 12C18 9.79086 16.2091 8 14 8C11.7909 8 10 9.79086 10 12C10 14.2091 11.7909 16 14 16Z" fill="white"/>
<path fill-rule="evenodd" clip-rule="evenodd" d="M4 0C1.79086 0 0 1.79086 0 4V24C0 26.2091 1.79086 28 4 28H24C26.2091 28 28 26.2091 28 24V4C28 1.79086 26.2091 0 24 0H4ZM24 2H4C2.89543 2 2 2.89543 2 4V24C2 25.1046 2.89543 26 4 26H4.20004C5.12658 21.4355 9.16209 18 14 18C18.8379 18 22.8734 21.4355 23.8 26H24C25.1046 26 26 25.1046 26 24V4C26 2.89543 25.1046 2 24 2ZM21.748 26C20.8599 22.5495 17.7277 20 14 20C10.2723 20 7.14012 22.5495 6.25204 26H21.748Z" fill="white"/>
</svg>
